<svg width="557" height="383" viewBox="0 0 557 383" fill="none" xmlns="http://www.w3.org/2000/svg">
<path d="M121.707 0L119.997 8.39995L113.985 3.07026L116.037 8.55015L107.194 5.02037L116.046 13.4591C114.063 14.8371 112.765 17.1491 112.765 19.8004C112.765 24.0833 116.151 27.4845 120.345 27.4845C124.538 27.4845 127.924 24.0833 127.924 19.8004C127.924 17.0034 126.48 14.5835 124.311 13.24L129.595 4.2511L123.656 8.00407L121.707 0.000212036L121.707 0ZM87.1015 9.04892C85.7877 9.04892 84.6099 9.61749 83.793 10.517L75.4632 9.32472L74.8962 13.2495L81.4758 14.1911L69 22.9763L77.7824 21.1624L76.0712 28.7723L81.5822 24.113L85.5268 31.3431L85.352 17.5772C85.9052 17.8116 86.5003 17.9321 87.1015 17.9315C87.753 17.9315 88.3699 17.7898 88.9278 17.5401C91.7323 21.0945 95.4471 24.0137 101.004 25.8654C99.4884 27.2325 97.9813 28.6096 96.4629 29.9731C106.697 30.608 113.873 40.5433 115.707 50.7597C114.246 51.0663 112.731 51.5691 111.165 52.2872C117.276 64.5882 106.653 79.7159 104.067 87.0908L105.194 87.1315L97.9191 95.8779L105.93 91.864L106.256 99.6546L110.368 93.7349L116.058 99.7023L112.967 87.4113L114.401 87.4631C114.538 77.1695 117.317 69.2948 119.019 57.6292C120.31 68.0692 123.028 78.5101 120.377 88.9503L121.712 88.792L118.542 100L124.232 94.0326L128.344 99.9516L128.67 92.1614L136.681 96.1747L129.725 87.8422L130.834 87.7107C129.157 79.511 122.259 64.7119 126.731 52.6122C125.396 51.7632 123.951 51.1424 122.41 50.7771C125.038 41.4972 132.219 32.3814 140.66 30.7169L139.036 28.0734C144.44 25.841 147.406 22.5286 149.387 18.7672C149.892 18.9411 150.434 19.037 150.998 19.037C151.35 19.037 151.693 19.0001 152.024 18.9305L154.953 31.5627L156.596 22.7877L163.022 27.2497L160.781 20.4082L169 19.5157L157.236 14.8897L168.422 13.463L167.916 9.53029L154.944 11.1844C154.044 9.99215 152.612 9.22119 150.998 9.22119C148.936 9.22119 147.17 10.4814 146.434 12.2698L130.528 14.2997C131.169 15.4959 131.595 16.7942 131.788 18.1362L141.955 16.8396C139.542 18.6036 137.655 20.8906 136.439 23.8444L135.181 21.7971C133.266 23.7971 131.37 25.5172 129.495 26.8988C127.379 29.6589 124.066 31.4494 120.345 31.4494C116.465 31.4494 113.03 29.504 110.932 26.5423C109.486 25.088 108.065 23.2315 106.672 20.9299C105.572 21.8379 104.492 22.7686 103.421 23.7101C101.573 20.8361 99.442 18.3719 96.9402 16.4047L108.904 18.1171C109.099 16.7791 109.525 15.4848 110.165 14.292L91.1186 11.565C90.3976 10.0774 88.8724 9.0485 87.1017 9.0485L87.1015 9.04892ZM111.165 52.2876C111.165 52.2872 111.164 52.2867 111.164 52.2861L111.164 52.2883L111.165 52.2876Z" fill="#006CA9"/>
<path d="M116.5 100V105.175C112.1 105.733 108.01 107.738 104.874 110.874C101.738 114.01 99.733 118.1 99.175 122.5H94V127.5H99.175C99.733 131.9 101.738 135.99 104.874 139.126C108.01 142.262 112.1 144.267 116.5 144.825V150H121.5V144.825C125.9 144.267 129.99 142.262 133.126 139.126C136.262 135.99 138.267 131.9 138.825 127.5H144V122.5H138.825C138.267 118.1 136.262 114.01 133.126 110.874C129.99 107.738 125.9 105.733 121.5 105.175V100M116.5 110.2V115H121.5V110.225C127.75 111.25 132.75 116.25 133.8 122.5H129V127.5H133.775C132.75 133.75 127.75 138.75 121.5 139.8V135H116.5V139.775C110.25 138.75 105.25 133.75 104.2 127.5H109V122.5H104.225C105.25 116.25 110.25 111.25 116.5 110.2ZM119 122.5C118.337 122.5 117.701 122.763 117.232 123.232C116.763 123.701 116.5 124.337 116.5 125C116.5 125.663 116.763 126.299 117.232 126.768C117.701 127.237 118.337 127.5 119 127.5C119.663 127.5 120.299 127.237 120.768 126.768C121.237 126.299 121.5 125.663 121.5 125C121.5 124.337 121.237 123.701 120.768 123.232C120.299 122.763 119.663 122.5 119 122.5Z" fill="#006CA9"/>
<path d="M329.5 100V105.175C325.1 105.733 321.01 107.738 317.874 110.874C314.738 114.01 312.733 118.1 312.175 122.5H307V127.5H312.175C312.733 131.9 314.738 135.99 317.874 139.126C321.01 142.262 325.1 144.267 329.5 144.825V150H334.5V144.825C338.9 144.267 342.99 142.262 346.126 139.126C349.262 135.99 351.267 131.9 351.825 127.5H357V122.5H351.825C351.267 118.1 349.262 114.01 346.126 110.874C342.99 107.738 338.9 105.733 334.5 105.175V100M329.5 110.2V115H334.5V110.225C340.75 111.25 345.75 116.25 346.8 122.5H342V127.5H346.775C345.75 133.75 340.75 138.75 334.5 139.8V135H329.5V139.775C323.25 138.75 318.25 133.75 317.2 127.5H322V122.5H317.225C318.25 116.25 323.25 111.25 329.5 110.2ZM332 122.5C331.337 122.5 330.701 122.763 330.232 123.232C329.763 123.701 329.5 124.337 329.5 125C329.5 125.663 329.763 126.299 330.232 126.768C330.701 127.237 331.337 127.5 332 127.5C332.663 127.5 333.299 127.237 333.768 126.768C334.237 126.299 334.5 125.663 334.5 125C334.5 124.337 334.237 123.701 333.768 123.232C333.299 122.763 332.663 122.5 332 122.5Z" fill="#006CA9"/>
<path d="M224.5 333V338.175C220.1 338.733 216.01 340.738 212.874 343.874C209.738 347.01 207.733 351.1 207.175 355.5H202V360.5H207.175C207.733 364.9 209.738 368.99 212.874 372.126C216.01 375.262 220.1 377.267 224.5 377.825V383H229.5V377.825C233.9 377.267 237.99 375.262 241.126 372.126C244.262 368.99 246.267 364.9 246.825 360.5H252V355.5H246.825C246.267 351.1 244.262 347.01 241.126 343.874C237.99 340.738 233.9 338.733 229.5 338.175V333M224.5 343.2V348H229.5V343.225C235.75 344.25 240.75 349.25 241.8 355.5H237V360.5H241.775C240.75 366.75 235.75 371.75 229.5 372.8V368H224.5V372.775C218.25 371.75 213.25 366.75 212.2 360.5H217V355.5H212.225C213.25 349.25 218.25 344.25 224.5 343.2ZM227 355.5C226.337 355.5 225.701 355.763 225.232 356.232C224.763 356.701 224.5 357.337 224.5 358C224.5 358.663 224.763 359.299 225.232 359.768C225.701 360.237 226.337 360.5 227 360.5C227.663 360.5 228.299 360.237 228.768 359.768C229.237 359.299 229.5 358.663 229.5 358C229.5 357.337 229.237 356.701 228.768 356.232C228.299 355.763 227.663 355.5 227 355.5Z" fill="#006CA9"/>
<path d="M329.5 214V219.175C325.1 219.733 321.01 221.738 317.874 224.874C314.738 228.01 312.733 232.1 312.175 236.5H307V241.5H312.175C312.733 245.9 314.738 249.99 317.874 253.126C321.01 256.262 325.1 258.267 329.5 258.825V264H334.5V258.825C338.9 258.267 342.99 256.262 346.126 253.126C349.262 249.99 351.267 245.9 351.825 241.5H357V236.5H351.825C351.267 232.1 349.262 228.01 346.126 224.874C342.99 221.738 338.9 219.733 334.5 219.175V214M329.5 224.2V229H334.5V224.225C340.75 225.25 345.75 230.25 346.8 236.5H342V241.5H346.775C345.75 247.75 340.75 252.75 334.5 253.8V249H329.5V253.775C323.25 252.75 318.25 247.75 317.2 241.5H322V236.5H317.225C318.25 230.25 323.25 225.25 329.5 224.2ZM332 236.5C331.337 236.5 330.701 236.763 330.232 237.232C329.763 237.701 329.5 238.337 329.5 239C329.5 239.663 329.763 240.299 330.232 240.768C330.701 241.237 331.337 241.5 332 241.5C332.663 241.5 333.299 241.237 333.768 240.768C334.237 240.299 334.5 239.663 334.5 239C334.5 238.337 334.237 237.701 333.768 237.232C333.299 236.763 332.663 236.5 332 236.5Z" fill="#006CA9"/>
<path d="M508.5 214V219.175C504.1 219.733 500.01 221.738 496.874 224.874C493.738 228.01 491.733 232.1 491.175 236.5H486V241.5H491.175C491.733 245.9 493.738 249.99 496.874 253.126C500.01 256.262 504.1 258.267 508.5 258.825V264H513.5V258.825C517.9 258.267 521.99 256.262 525.126 253.126C528.262 249.99 530.267 245.9 530.825 241.5H536V236.5H530.825C530.267 232.1 528.262 228.01 525.126 224.874C521.99 221.738 517.9 219.733 513.5 219.175V214M508.5 224.2V229H513.5V224.225C519.75 225.25 524.75 230.25 525.8 236.5H521V241.5H525.775C524.75 247.75 519.75 252.75 513.5 253.8V249H508.5V253.775C502.25 252.75 497.25 247.75 496.2 241.5H501V236.5H496.225C497.25 230.25 502.25 225.25 508.5 224.2ZM511 236.5C510.337 236.5 509.701 236.763 509.232 237.232C508.763 237.701 508.5 238.337 508.5 239C508.5 239.663 508.763 240.299 509.232 240.768C509.701 241.237 510.337 241.5 511 241.5C511.663 241.5 512.299 241.237 512.768 240.768C513.237 240.299 513.5 239.663 513.5 239C513.5 238.337 513.237 237.701 512.768 237.232C512.299 236.763 511.663 236.5 511 236.5Z" fill="#006CA9"/>
<path d="M116.5 214V219.175C112.1 219.733 108.01 221.738 104.874 224.874C101.738 228.01 99.733 232.1 99.175 236.5H94V241.5H99.175C99.733 245.9 101.738 249.99 104.874 253.126C108.01 256.262 112.1 258.267 116.5 258.825V264H121.5V258.825C125.9 258.267 129.99 256.262 133.126 253.126C136.262 249.99 138.267 245.9 138.825 241.5H144V236.5H138.825C138.267 232.1 136.262 228.01 133.126 224.874C129.99 221.738 125.9 219.733 121.5 219.175V214M116.5 224.2V229H121.5V224.225C127.75 225.25 132.75 230.25 133.8 236.5H129V241.5H133.775C132.75 247.75 127.75 252.75 121.5 253.8V249H116.5V253.775C110.25 252.75 105.25 247.75 104.2 241.5H109V236.5H104.225C105.25 230.25 110.25 225.25 116.5 224.2ZM119 236.5C118.337 236.5 117.701 236.763 117.232 237.232C116.763 237.701 116.5 238.337 116.5 239C116.5 239.663 116.763 240.299 117.232 240.768C117.701 241.237 118.337 241.5 119 241.5C119.663 241.5 120.299 241.237 120.768 240.768C121.237 240.299 121.5 239.663 121.5 239C121.5 238.337 121.237 237.701 120.768 237.232C120.299 236.763 119.663 236.5 119 236.5Z" fill="#006CA9"/>
<path d="M508.5 333V338.175C504.1 338.733 500.01 340.738 496.874 343.874C493.738 347.01 491.733 351.1 491.175 355.5H486V360.5H491.175C491.733 364.9 493.738 368.99 496.874 372.126C500.01 375.262 504.1 377.267 508.5 377.825V383H513.5V377.825C517.9 377.267 521.99 375.262 525.126 372.126C528.262 368.99 530.267 364.9 530.825 360.5H536V355.5H530.825C530.267 351.1 528.262 347.01 525.126 343.874C521.99 340.738 517.9 338.733 513.5 338.175V333M508.5 343.2V348H513.5V343.225C519.75 344.25 524.75 349.25 525.8 355.5H521V360.5H525.775C524.75 366.75 519.75 371.75 513.5 372.8V368H508.5V372.775C502.25 371.75 497.25 366.75 496.2 360.5H501V355.5H496.225C497.25 349.25 502.25 344.25 508.5 343.2ZM511 355.5C510.337 355.5 509.701 355.763 509.232 356.232C508.763 356.701 508.5 357.337 508.5 358C508.5 358.663 508.763 359.299 509.232 359.768C509.701 360.237 510.337 360.5 511 360.5C511.663 360.5 512.299 360.237 512.768 359.768C513.237 359.299 513.5 358.663 513.5 358C513.5 357.337 513.237 356.701 512.768 356.232C512.299 355.763 511.663 355.5 511 355.5Z" fill="#006CA9"/>
<path d="M224.5 214V219.175C220.1 219.733 216.01 221.738 212.874 224.874C209.738 228.01 207.733 232.1 207.175 236.5H202V241.5H207.175C207.733 245.9 209.738 249.99 212.874 253.126C216.01 256.262 220.1 258.267 224.5 258.825V264H229.5V258.825C233.9 258.267 237.99 256.262 241.126 253.126C244.262 249.99 246.267 245.9 246.825 241.5H252V236.5H246.825C246.267 232.1 244.262 228.01 241.126 224.874C237.99 221.738 233.9 219.733 229.5 219.175V214M224.5 224.2V229H229.5V224.225C235.75 225.25 240.75 230.25 241.8 236.5H237V241.5H241.775C240.75 247.75 235.75 252.75 229.5 253.8V249H224.5V253.775C218.25 252.75 213.25 247.75 212.2 241.5H217V236.5H212.225C213.25 230.25 218.25 225.25 224.5 224.2ZM227 236.5C226.337 236.5 225.701 236.763 225.232 237.232C224.763 237.701 224.5 238.337 224.5 239C224.5 239.663 224.763 240.299 225.232 240.768C225.701 241.237 226.337 241.5 227 241.5C227.663 241.5 228.299 241.237 228.768 240.768C229.237 240.299 229.5 239.663 229.5 239C229.5 238.337 229.237 237.701 228.768 237.232C228.299 236.763 227.663 236.5 227 236.5Z" fill="#006CA9"/>
<line x1="119" y1="124" x2="332" y2="124" stroke="#737370" stroke-width="2" stroke-dasharray="4 4"/>
<line x1="331" y1="239" x2="331" y2="125" stroke="#737370" stroke-width="2" stroke-dasharray="4 4"/>
<line x1="332" y1="238" x2="511" y2="238" stroke="#737370" stroke-width="2" stroke-dasharray="4 4"/>
<line x1="510" y1="366" x2="510" y2="239" stroke="#737370" stroke-width="2" stroke-dasharray="4 4"/>
<line x1="511" y1="359" x2="227" y2="359" stroke="#737370" stroke-width="2" stroke-dasharray="4 4"/>
<line x1="228" y1="239" x2="228" y2="358" stroke="#737370" stroke-width="2" stroke-dasharray="4 4"/>
<line x1="227" y1="240" x2="119" y2="240" stroke="#737370" stroke-width="2" stroke-dasharray="4 4"/>
<line x1="120" y1="125" x2="120" y2="239" stroke="#737370" stroke-width="2" stroke-dasharray="4 4"/>
<path d="M82.9563 115.182V137H80.3143V117.952H80.1864L74.8597 121.489V118.804L80.3143 115.182H82.9563Z" fill="#006CA9"/>
<path d="M211.956 7.18182V29H209.314V9.9517H209.186L203.86 13.4886V10.804L209.314 7.18182H211.956Z" fill="#82D1F5"/>
<path d="M11.8041 137.919V140.263H2.25861V137.919H11.8041ZM23.8557 128.182V150H21.2137V130.952H21.0858L15.7591 134.489V131.804L21.2137 128.182H23.8557Z" fill="#82D1F5"/>
<path d="M80.004 226.298C78.5409 226.298 77.2483 226.039 76.1262 225.521C75.0111 224.995 74.1411 224.274 73.5161 223.358C72.8911 222.435 72.5821 221.384 72.5892 220.205C72.5821 219.281 72.7632 218.429 73.1325 217.648C73.5019 216.859 74.0061 216.202 74.6453 215.677C75.2916 215.144 76.0125 214.807 76.808 214.665V214.537C75.7639 214.267 74.933 213.681 74.3151 212.779C73.6972 211.87 73.3918 210.837 73.3989 209.679C73.3918 208.571 73.6723 207.58 74.2405 206.707C74.8087 205.833 75.5899 205.144 76.5843 204.64C77.5857 204.136 78.7256 203.884 80.004 203.884C81.2682 203.884 82.3975 204.136 83.3918 204.64C84.3861 205.144 85.1673 205.833 85.7355 206.707C86.3108 207.58 86.602 208.571 86.6091 209.679C86.602 210.837 86.286 211.87 85.661 212.779C85.0431 213.681 84.2227 214.267 83.2 214.537V214.665C83.9884 214.807 84.6986 215.144 85.3307 215.677C85.9628 216.202 86.4671 216.859 86.8435 217.648C87.2199 218.429 87.4117 219.281 87.4188 220.205C87.4117 221.384 87.0921 222.435 86.46 223.358C85.835 224.274 84.9649 224.995 83.8499 225.521C82.7419 226.039 81.46 226.298 80.004 226.298ZM80.004 223.955C80.9912 223.955 81.8435 223.795 82.5608 223.475C83.2781 223.156 83.8321 222.705 84.2227 222.122C84.6134 221.54 84.8122 220.858 84.8193 220.077C84.8122 219.253 84.5992 218.525 84.1801 217.893C83.7611 217.261 83.1894 216.763 82.4649 216.401C81.7476 216.039 80.9273 215.858 80.004 215.858C79.0736 215.858 78.2426 216.039 77.5111 216.401C76.7867 216.763 76.2149 217.261 75.7959 217.893C75.384 218.525 75.1816 219.253 75.1887 220.077C75.1816 220.858 75.3698 221.54 75.7533 222.122C76.1439 222.705 76.7014 223.156 77.4259 223.475C78.1503 223.795 79.0097 223.955 80.004 223.955ZM80.004 213.599C80.7852 213.599 81.4777 213.443 82.0814 213.131C82.6922 212.818 83.1716 212.381 83.5196 211.82C83.8676 211.259 84.0452 210.602 84.0523 209.849C84.0452 209.111 83.8712 208.468 83.5303 207.921C83.1894 207.367 82.7171 206.941 82.1134 206.643C81.5097 206.337 80.8066 206.185 80.004 206.185C79.1872 206.185 78.4735 206.337 77.8627 206.643C77.2519 206.941 76.7796 207.367 76.4458 207.921C76.1119 208.468 75.9486 209.111 75.9557 209.849C75.9486 210.602 76.1155 211.259 76.4564 211.82C76.8044 212.381 77.2838 212.818 77.8946 213.131C78.5054 213.443 79.2085 213.599 80.004 213.599Z" fill="#006CA9"/>
<path d="M189.371 226L199.13 206.696V206.526H187.88V204.182H201.857V206.653L192.141 226H189.371Z" fill="#006CA9"/>
<path d="M195.142 345.298C194.248 345.284 193.353 345.114 192.458 344.787C191.563 344.46 190.746 343.91 190.008 343.136C189.269 342.354 188.676 341.3 188.228 339.972C187.781 338.636 187.557 336.96 187.557 334.943C187.557 333.011 187.738 331.3 188.101 329.808C188.463 328.31 188.988 327.049 189.677 326.026C190.366 324.996 191.197 324.215 192.17 323.683C193.15 323.15 194.255 322.884 195.483 322.884C196.705 322.884 197.792 323.129 198.743 323.619C199.702 324.102 200.483 324.776 201.087 325.643C201.691 326.509 202.081 327.507 202.259 328.636H199.66C199.418 327.656 198.949 326.843 198.253 326.197C197.557 325.55 196.634 325.227 195.483 325.227C193.793 325.227 192.461 325.962 191.488 327.433C190.522 328.903 190.036 330.966 190.029 333.622H190.199C190.597 333.018 191.069 332.504 191.616 332.077C192.17 331.644 192.781 331.31 193.449 331.076C194.116 330.842 194.823 330.724 195.569 330.724C196.819 330.724 197.962 331.037 198.999 331.662C200.036 332.28 200.867 333.136 201.492 334.229C202.117 335.316 202.429 336.562 202.429 337.969C202.429 339.318 202.128 340.554 201.524 341.676C200.92 342.791 200.071 343.679 198.978 344.339C197.891 344.993 196.613 345.312 195.142 345.298ZM195.142 342.955C196.037 342.955 196.84 342.731 197.55 342.283C198.267 341.836 198.832 341.236 199.244 340.483C199.663 339.73 199.873 338.892 199.873 337.969C199.873 337.067 199.67 336.246 199.265 335.508C198.868 334.762 198.317 334.169 197.614 333.729C196.918 333.288 196.123 333.068 195.228 333.068C194.553 333.068 193.924 333.203 193.342 333.473C192.76 333.736 192.248 334.098 191.808 334.56C191.375 335.021 191.034 335.55 190.785 336.147C190.537 336.737 190.412 337.358 190.412 338.011C190.412 338.878 190.615 339.687 191.02 340.44C191.432 341.193 191.993 341.8 192.703 342.262C193.42 342.724 194.233 342.955 195.142 342.955Z" fill="#006CA9"/>
<path d="M542.951 345.298C541.701 345.298 540.575 345.05 539.574 344.553C538.572 344.055 537.77 343.374 537.166 342.507C536.562 341.641 536.232 340.653 536.175 339.545H538.732C538.831 340.533 539.279 341.349 540.074 341.996C540.877 342.635 541.836 342.955 542.951 342.955C543.846 342.955 544.641 342.745 545.337 342.326C546.04 341.907 546.591 341.332 546.988 340.6C547.393 339.862 547.596 339.027 547.596 338.097C547.596 337.145 547.386 336.296 546.967 335.55C546.555 334.798 545.987 334.205 545.263 333.771C544.538 333.338 543.711 333.118 542.78 333.111C542.113 333.104 541.427 333.207 540.724 333.42C540.021 333.626 539.442 333.892 538.988 334.219L536.516 333.92L537.837 323.182H549.172V325.526H540.053L539.286 331.96H539.414C539.861 331.605 540.422 331.31 541.097 331.076C541.772 330.842 542.475 330.724 543.206 330.724C544.542 330.724 545.731 331.044 546.775 331.683C547.826 332.315 548.65 333.182 549.247 334.283C549.851 335.384 550.152 336.641 550.152 338.054C550.152 339.446 549.84 340.689 549.215 341.783C548.597 342.869 547.745 343.729 546.658 344.361C545.571 344.986 544.336 345.298 542.951 345.298Z" fill="#006CA9"/>
<path d="M535.123 221.526V219.352L544.711 204.182H546.288V207.548H545.223L537.978 219.011V219.182H550.89V221.526H535.123ZM545.393 226V220.865V219.853V204.182H547.907V226H545.393Z" fill="#006CA9"/>
<path d="M369.08 226.298C367.674 226.298 366.42 226.057 365.319 225.574C364.225 225.091 363.355 224.42 362.709 223.56C362.07 222.694 361.722 221.689 361.665 220.545H364.35C364.407 221.249 364.648 221.856 365.074 222.367C365.5 222.871 366.058 223.262 366.747 223.539C367.436 223.816 368.199 223.955 369.037 223.955C369.975 223.955 370.806 223.791 371.53 223.464C372.255 223.138 372.823 222.683 373.235 222.101C373.647 221.518 373.853 220.844 373.853 220.077C373.853 219.274 373.654 218.567 373.256 217.957C372.858 217.339 372.276 216.856 371.509 216.508C370.742 216.16 369.804 215.986 368.696 215.986H366.949V213.642H368.696C369.563 213.642 370.323 213.486 370.976 213.173C371.637 212.861 372.152 212.42 372.521 211.852C372.897 211.284 373.086 210.616 373.086 209.849C373.086 209.111 372.922 208.468 372.596 207.921C372.269 207.374 371.807 206.948 371.211 206.643C370.621 206.337 369.925 206.185 369.123 206.185C368.37 206.185 367.659 206.323 366.992 206.6C366.331 206.87 365.792 207.264 365.373 207.783C364.953 208.294 364.726 208.912 364.691 209.636H362.134C362.176 208.493 362.521 207.491 363.167 206.632C363.814 205.766 364.659 205.091 365.703 204.608C366.754 204.125 367.908 203.884 369.165 203.884C370.515 203.884 371.672 204.157 372.638 204.704C373.604 205.244 374.346 205.957 374.865 206.845C375.383 207.733 375.642 208.692 375.642 209.722C375.642 210.95 375.319 211.998 374.673 212.864C374.034 213.731 373.164 214.331 372.063 214.665V214.835C373.441 215.062 374.517 215.648 375.291 216.593C376.065 217.531 376.452 218.692 376.452 220.077C376.452 221.263 376.129 222.328 375.483 223.273C374.843 224.21 373.97 224.949 372.862 225.489C371.754 226.028 370.493 226.298 369.08 226.298Z" fill="#006CA9"/>
<path d="M362.176 137V135.082L369.378 127.199C370.223 126.276 370.919 125.473 371.466 124.791C372.013 124.102 372.418 123.456 372.681 122.852C372.951 122.241 373.086 121.602 373.086 120.935C373.086 120.168 372.901 119.504 372.532 118.942C372.169 118.381 371.672 117.948 371.04 117.643C370.408 117.337 369.698 117.185 368.909 117.185C368.071 117.185 367.34 117.359 366.715 117.707C366.097 118.048 365.618 118.527 365.277 119.145C364.943 119.763 364.776 120.487 364.776 121.318H362.262C362.262 120.04 362.556 118.918 363.146 117.952C363.735 116.986 364.538 116.233 365.554 115.693C366.576 115.153 367.723 114.884 368.995 114.884C370.273 114.884 371.406 115.153 372.393 115.693C373.38 116.233 374.154 116.961 374.716 117.877C375.277 118.793 375.557 119.812 375.557 120.935C375.557 121.737 375.412 122.522 375.12 123.289C374.836 124.049 374.339 124.898 373.629 125.835C372.926 126.766 371.949 127.902 370.699 129.244L365.799 134.486V134.656H375.941V137H362.176Z" fill="#006CA9"/>
<path d="M235.414 51.4142C236.195 50.6332 236.195 49.3668 235.414 48.5858L222.686 35.8579C221.905 35.0768 220.639 35.0768 219.858 35.8579C219.077 36.6389 219.077 37.9052 219.858 38.6863L231.172 50L219.858 61.3137C219.077 62.0948 219.077 63.3611 219.858 64.1421C220.639 64.9232 221.905 64.9232 222.686 64.1421L235.414 51.4142ZM173 52H234V48H173V52Z" fill="#82D1F5"/>
<path d="M45.5858 176.414C46.3668 177.195 47.6332 177.195 48.4142 176.414L61.1421 163.686C61.9232 162.905 61.9232 161.639 61.1421 160.858C60.3611 160.077 59.0948 160.077 58.3137 160.858L47 172.172L35.6863 160.858C34.9052 160.077 33.6389 160.077 32.8579 160.858C32.0768 161.639 32.0768 162.905 32.8579 163.686L45.5858 176.414ZM45 125V175H49V125H45Z" fill="#82D1F5"/>
</svg>
